<svg height="512" viewBox="0 0 64 64" width="512" xmlns="http://www.w3.org/2000/svg"><g id="Filled_Outline" data-name="Filled Outline"><path d="m42.021 11.979h4v16h-4z" fill="#870e4f" transform="matrix(-.707 -.707 .707 -.707 61.021 65.234)"/><path d="m17.979 36.021h4v16h-4z" fill="#870e4f" transform="matrix(-.707 -.707 .707 -.707 2.979 89.276)"/><path d="m42.021 36.021h4v16h-4z" fill="#870e4f" transform="matrix(.707 -.707 .707 .707 -18.234 44.021)"/><path d="m17.979 11.979h4v16h-4z" fill="#870e4f" transform="matrix(.707 -.707 .707 .707 -8.276 19.979)"/><circle cx="32" cy="32" fill="#ad1456" r="15"/><g fill="#870e4f"><path d="m30 43h4v14h-4z"/><path d="m30 7h4v14h-4z"/><circle cx="32" cy="57" r="4"/><circle cx="32" cy="7" r="4"/><circle cx="49.678" cy="49.678" r="4"/><circle cx="14.322" cy="14.322" r="4"/><path d="m43 30h14v4h-14z"/><path d="m7 30h14v4h-14z"/><circle cx="57" cy="32" r="4"/><circle cx="7" cy="32" r="4"/><circle cx="49.678" cy="14.322" r="4"/><circle cx="14.322" cy="49.678" r="4"/><circle cx="26" cy="26" r="2"/><circle cx="36" cy="36" r="3"/></g><path d="m57 27a4.977 4.977 0 0 0 -3.974 2h-5.34a15.892 15.892 0 0 0 -2.476-5.967l3.778-3.779a5 5 0 1 0 -4.242-4.242l-3.775 3.775a15.876 15.876 0 0 0 -5.971-2.479v-5.334a5 5 0 1 0 -6 0v5.315a15.869 15.869 0 0 0 -5.982 2.486l-3.764-3.763a5.144 5.144 0 1 0 -4.242 4.242l3.777 3.777a15.921 15.921 0 0 0 -2.474 5.969h-5.341a5 5 0 1 0 0 6h5.31a15.876 15.876 0 0 0 2.494 5.979l-3.767 3.767a5 5 0 1 0 4.243 4.242l3.772-3.771a15.923 15.923 0 0 0 5.974 2.483v5.324a5 5 0 1 0 6 0v-5.335a15.911 15.911 0 0 0 5.969-2.478l3.777 3.777a5 5 0 1 0 4.242-4.242l-3.766-3.767a15.893 15.893 0 0 0 2.478-5.979h5.323a4.991 4.991 0 1 0 3.977-8zm-9.444-14.8a3 3 0 1 1 0 4.243 2.98 2.98 0 0 1 0-4.243zm-2.05 4.878a5 5 0 0 0 1.415 1.415l-2.942 2.941a16.128 16.128 0 0 0 -1.418-1.41zm-13.506-13.078a3 3 0 1 1 -3 3 3 3 0 0 1 3-3zm-20.678 10.322a3 3 0 1 1 .879 2.122 2.98 2.98 0 0 1 -.879-2.122zm5.757 4.172a5 5 0 0 0 1.415-1.415l2.942 2.943a15.991 15.991 0 0 0 -1.42 1.408zm-10.079 16.506a3 3 0 1 1 3-3 3 3 0 0 1 -3 3zm9.444 16.8a3.072 3.072 0 0 1 -4.243 0 3 3 0 1 1 4.243 0zm2.05-4.878a4.98 4.98 0 0 0 -1.415-1.414l2.939-2.939a16.138 16.138 0 0 0 1.413 1.416zm13.506 13.078a3 3 0 1 1 3-3 3 3 0 0 1 -3 3zm20.678-10.322a2.98 2.98 0 0 1 -.878 2.122 3.072 3.072 0 0 1 -4.243 0 3 3 0 1 1 5.122-2.121zm-5.757-4.171a4.98 4.98 0 0 0 -1.415 1.414l-2.937-2.937a16.138 16.138 0 0 0 1.407-1.422zm-3.921-12.507a1 1 0 0 0 0 2h2.661a14.019 14.019 0 0 1 -10.661 10.656v-2.656a1 1 0 0 0 -2 0v9.1a5 5 0 0 0 -2 0v-9.1a1 1 0 0 0 -2 0v2.659a14.023 14.023 0 0 1 -10.661-10.659h2.661a1 1 0 0 0 0-2h-9.1a5 5 0 0 0 0-2h9.1a1 1 0 0 0 0-2h-2.652a14.016 14.016 0 0 1 10.652-10.659v2.659a1 1 0 0 0 2 0v-9.1a5 5 0 0 0 2 0v9.1a1 1 0 0 0 2 0v-2.651a14.017 14.017 0 0 1 10.656 10.651h-2.656a1 1 0 0 0 0 2h9.1a5 5 0 0 0 0 2zm14 2a3 3 0 1 1 3-3 3 3 0 0 1 -3 3z"/><path d="m26 23a3 3 0 1 0 3 3 3 3 0 0 0 -3-3zm0 4a1 1 0 1 1 1-1 1 1 0 0 1 -1 1z"/><path d="m36 32a4 4 0 1 0 4 4 4 4 0 0 0 -4-4zm0 6a2 2 0 1 1 2-2 2 2 0 0 1 -2 2z"/><path d="m37 27h-1a1 1 0 0 1 0-2h1a1 1 0 0 1 0 2z"/><path d="m28 34h-1a1 1 0 0 1 0-2h1a1 1 0 0 1 0 2z"/><path d="m26 40h-1a1 1 0 0 1 0-2h1a1 1 0 0 1 0 2z"/></g></svg>